<svg xmlns="http://www.w3.org/2000/svg" viewBox="0 0 480 480" fill="none">
  <defs>
    <linearGradient id="bg" x1="0" y1="0" x2="1" y2="1">
      <stop offset="0%" stop-color="#451a03"/>
      <stop offset="100%" stop-color="#1c1917"/>
    </linearGradient>
    <linearGradient id="cup" x1="0" y1="0" x2="0" y2="1">
      <stop offset="0%" stop-color="#fff7ed"/>
      <stop offset="100%" stop-color="#fed7aa"/>
    </linearGradient>
  </defs>
  <rect width="480" height="480" fill="url(#bg)"/>
  <ellipse cx="240" cy="390" rx="130" ry="18" fill="#000" opacity="0.25"/>
  <path d="M155 150h170l-16 205c-4 26-26 44-69 44s-65-18-69-44L155 150z" fill="url(#cup)" stroke="#ea580c" stroke-width="3"/>
  <ellipse cx="240" cy="150" rx="85" ry="20" fill="#fffbeb" stroke="#f97316" stroke-width="3"/>
  <path d="M175 210c30-10 100-10 130 0 8 35-15 70-65 70s-73-35-65-70z" fill="#fecaca"/>
  <path d="M190 185c55 0 100 12 100 12-8 45-35 62-100 62S170 242 190 185z" fill="#7c2d12"/>
  <circle cx="215" cy="228" r="8" fill="#ef4444"/>
  <circle cx="265" cy="220" r="7" fill="#f87171"/>
  <text x="240" y="88" text-anchor="middle" fill="#fdba74" font-family="system-ui,sans-serif" font-size="12" font-weight="700" letter-spacing="2">CHOCOBOMBA FRUTAL</text>
</svg>
