<svg xmlns="http://www.w3.org/2000/svg" viewBox="0 0 480 480" fill="none">
  <defs>
    <linearGradient id="bg" x1="0" y1="0" x2="1" y2="1">
      <stop offset="0%" stop-color="#065f46"/>
      <stop offset="55%" stop-color="#047857"/>
      <stop offset="100%" stop-color="#134e4a"/>
    </linearGradient>
    <linearGradient id="cup" x1="0" y1="0" x2="0" y2="1">
      <stop offset="0%" stop-color="#ecfdf5"/>
      <stop offset="100%" stop-color="#a7f3d0"/>
    </linearGradient>
    <radialGradient id="glow" cx="45%" cy="30%" r="55%">
      <stop offset="0%" stop-color="#34d399" stop-opacity="0.4"/>
      <stop offset="100%" stop-color="#064e3b" stop-opacity="0"/>
    </radialGradient>
  </defs>
  <rect width="480" height="480" fill="url(#bg)"/>
  <rect width="480" height="480" fill="url(#glow)"/>
  <ellipse cx="240" cy="390" rx="130" ry="18" fill="#000" opacity="0.22"/>
  <path d="M150 140h180l-18 220c-4 28-28 48-72 48s-68-20-72-48L150 140z" fill="url(#cup)" stroke="#059669" stroke-width="3"/>
  <ellipse cx="240" cy="140" rx="90" ry="22" fill="#ecfdf5" stroke="#10b981" stroke-width="3"/>
  <ellipse cx="240" cy="198" rx="74" ry="40" fill="#f0fdf4" opacity="0.95"/>
  <circle cx="210" cy="205" r="16" fill="#f97316"/>
  <circle cx="248" cy="192" r="14" fill="#84cc16"/>
  <circle cx="275" cy="212" r="12" fill="#22c55e"/>
  <ellipse cx="228" cy="228" rx="18" ry="10" fill="#fbbf24"/>
  <path d="M188 255c24 16 88 16 112 0" stroke="#ca8a04" stroke-width="7" stroke-linecap="round"/>
  <text x="240" y="88" text-anchor="middle" fill="#a7f3d0" font-family="system-ui,sans-serif" font-size="11" font-weight="700" letter-spacing="2.5">ANTIOXIDANTE TROPICAL</text>
  <text x="240" y="448" text-anchor="middle" fill="#ecfdf5" font-family="system-ui,sans-serif" font-size="18" font-weight="800">Copa Toppi's</text>
</svg>
