<svg xmlns="http://www.w3.org/2000/svg" viewBox="0 0 480 520" fill="none">
  <defs>
    <linearGradient id="bg" x1="0" y1="0" x2="1" y2="1">
      <stop offset="0%" stop-color="#064e3b"/>
      <stop offset="100%" stop-color="#0f172a"/>
    </linearGradient>
    <linearGradient id="wicker" x1="0" y1="0" x2="1" y2="1">
      <stop offset="0%" stop-color="#d97706"/>
      <stop offset="100%" stop-color="#92400e"/>
    </linearGradient>
    <radialGradient id="glow" cx="50%" cy="45%" r="55%">
      <stop offset="0%" stop-color="#34d399" stop-opacity="0.25"/>
      <stop offset="100%" stop-color="#0f172a" stop-opacity="0"/>
    </radialGradient>
  </defs>
  <rect width="480" height="520" fill="url(#bg)"/>
  <rect width="480" height="520" fill="url(#glow)"/>
  <rect x="24" y="24" width="432" height="472" rx="28" stroke="#6ee7b7" stroke-width="3" fill="none" opacity="0.45"/>
  <rect x="40" y="40" width="400" height="440" rx="20" stroke="#fff" stroke-width="1" fill="none" opacity="0.1"/>
  <!-- basket -->
  <path d="M110 360h260l-28 72H138l-28-72z" fill="url(#wicker)" stroke="#b45309" stroke-width="2"/>
  <path d="M120 360c20-90 60-130 120-130s100 40 120 130" fill="none" stroke="url(#wicker)" stroke-width="14" stroke-linecap="round"/>
  <path d="M135 250h210" stroke="#78350f" stroke-width="2" opacity="0.5"/>
  <path d="M145 290h190" stroke="#78350f" stroke-width="2" opacity="0.5"/>
  <path d="M155 325h170" stroke="#78350f" stroke-width="2" opacity="0.5"/>
  <!-- items in basket -->
  <ellipse cx="175" cy="318" rx="28" ry="14" fill="#fbbf24"/>
  <rect x="220" y="300" width="50" height="32" rx="6" fill="#fecaca" stroke="#f87171" stroke-width="1.5"/>
  <rect x="285" y="302" width="48" height="30" rx="6" fill="#fef08a" stroke="#ca8a04" stroke-width="1.5"/>
  <circle cx="330" cy="325" r="14" fill="#166534" stroke="#4ade80" stroke-width="1.5"/>
  <rect x="155" y="335" width="30" height="18" rx="4" fill="#ea580c"/>
  <!-- balloon small -->
  <ellipse cx="350" cy="175" rx="30" ry="38" fill="#1d4ed8" stroke="#93c5fd" stroke-width="1.5"/>
  <path d="M350 213v22" stroke="#94a3b8" stroke-width="1.5"/>
  <text x="240" y="118" text-anchor="middle" fill="#6ee7b7" font-family="system-ui,sans-serif" font-size="13" font-weight="700" letter-spacing="3">BANDEJA | 19 JUN</text>
  <text x="240" y="468" text-anchor="middle" fill="#ecfdf5" font-family="system-ui,sans-serif" font-size="22" font-weight="800">Papá Bandeja</text>
  <text x="240" y="494" text-anchor="middle" fill="#94a3b8" font-family="system-ui,sans-serif" font-size="13">Canasto + picoteo abundante</text>
</svg>
