<svg xmlns="http://www.w3.org/2000/svg" viewBox="0 0 480 480" fill="none">
  <defs>
    <linearGradient id="bg" x1="0" y1="0" x2="1" y2="1">
      <stop offset="0%" stop-color="#831843"/>
      <stop offset="55%" stop-color="#9d174d"/>
      <stop offset="100%" stop-color="#4c0519"/>
    </linearGradient>
    <linearGradient id="cup" x1="0" y1="0" x2="0" y2="1">
      <stop offset="0%" stop-color="#fdf2f8"/>
      <stop offset="100%" stop-color="#fbcfe8"/>
    </linearGradient>
    <radialGradient id="glow" cx="55%" cy="32%" r="52%">
      <stop offset="0%" stop-color="#f472b6" stop-opacity="0.45"/>
      <stop offset="100%" stop-color="#500724" stop-opacity="0"/>
    </radialGradient>
  </defs>
  <rect width="480" height="480" fill="url(#bg)"/>
  <rect width="480" height="480" fill="url(#glow)"/>
  <ellipse cx="240" cy="390" rx="130" ry="18" fill="#000" opacity="0.24"/>
  <path d="M150 140h180l-18 220c-4 28-28 48-72 48s-68-20-72-48L150 140z" fill="url(#cup)" stroke="#db2777" stroke-width="3"/>
  <ellipse cx="240" cy="140" rx="90" ry="22" fill="#fff1f2" stroke="#ec4899" stroke-width="3"/>
  <ellipse cx="240" cy="198" rx="74" ry="40" fill="#fff1f2" opacity="0.96"/>
  <circle cx="208" cy="206" r="13" fill="#e11d48"/>
  <circle cx="238" cy="192" r="11" fill="#be123c"/>
  <circle cx="268" cy="208" r="10" fill="#1d4ed8"/>
  <circle cx="252" cy="222" r="9" fill="#2563eb"/>
  <rect x="218" y="238" width="44" height="10" rx="5" fill="#fde68a"/>
  <path d="M186 252c26 18 92 18 118 0" stroke="#be185d" stroke-width="7" stroke-linecap="round"/>
  <text x="240" y="88" text-anchor="middle" fill="#fbcfe8" font-family="system-ui,sans-serif" font-size="11" font-weight="700" letter-spacing="2.5">CHEESECAKE BERRIES</text>
  <text x="240" y="448" text-anchor="middle" fill="#fce7f3" font-family="system-ui,sans-serif" font-size="18" font-weight="800">Copa Toppi's</text>
</svg>
