<svg xmlns="http://www.w3.org/2000/svg" viewBox="0 0 480 480" fill="none">
  <defs>
    <linearGradient id="bg" x1="0" y1="0" x2="1" y2="1">
      <stop offset="0%" stop-color="#78350f"/>
      <stop offset="55%" stop-color="#451a03"/>
      <stop offset="100%" stop-color="#1c1917"/>
    </linearGradient>
    <linearGradient id="cup" x1="0" y1="0" x2="0" y2="1">
      <stop offset="0%" stop-color="#fef3c7"/>
      <stop offset="100%" stop-color="#fde68a"/>
    </linearGradient>
    <radialGradient id="glow" cx="50%" cy="35%" r="50%">
      <stop offset="0%" stop-color="#fbbf24" stop-opacity="0.35"/>
      <stop offset="100%" stop-color="#451a03" stop-opacity="0"/>
    </radialGradient>
  </defs>
  <rect width="480" height="480" fill="url(#bg)"/>
  <rect width="480" height="480" fill="url(#glow)"/>
  <ellipse cx="240" cy="390" rx="130" ry="18" fill="#000" opacity="0.25"/>
  <path d="M150 140h180l-18 220c-4 28-28 48-72 48s-68-20-72-48L150 140z" fill="url(#cup)" stroke="#d97706" stroke-width="3"/>
  <ellipse cx="240" cy="140" rx="90" ry="22" fill="#fffbeb" stroke="#f59e0b" stroke-width="3"/>
  <ellipse cx="240" cy="195" rx="72" ry="38" fill="#fff7ed" opacity="0.95"/>
  <circle cx="205" cy="210" r="14" fill="#92400e"/>
  <circle cx="235" cy="198" r="12" fill="#b45309"/>
  <circle cx="268" cy="215" r="13" fill="#78350f"/>
  <circle cx="250" cy="228" r="10" fill="#a16207"/>
  <path d="M190 250c20 18 80 18 100 0" stroke="#d97706" stroke-width="8" stroke-linecap="round"/>
  <rect x="300" y="168" width="42" height="8" rx="4" fill="#fde68a" transform="rotate(25 321 172)"/>
  <rect x="138" y="178" width="36" height="8" rx="4" fill="#fde68a" transform="rotate(-18 156 182)"/>
  <text x="240" y="88" text-anchor="middle" fill="#fde68a" font-family="system-ui,sans-serif" font-size="11" font-weight="700" letter-spacing="2.5">CRUNCHY BISCOFF</text>
  <text x="240" y="448" text-anchor="middle" fill="#fef3c7" font-family="system-ui,sans-serif" font-size="18" font-weight="800">Copa Toppi's</text>
</svg>
