<svg xmlns="http://www.w3.org/2000/svg" viewBox="0 0 480 480" fill="none">
  <defs>
    <linearGradient id="bg" x1="0" y1="0" x2="1" y2="1">
      <stop offset="0%" stop-color="#5b21b6"/>
      <stop offset="100%" stop-color="#312e81"/>
    </linearGradient>
    <linearGradient id="cup" x1="0" y1="0" x2="0" y2="1">
      <stop offset="0%" stop-color="#faf5ff"/>
      <stop offset="100%" stop-color="#ddd6fe"/>
    </linearGradient>
  </defs>
  <rect width="480" height="480" fill="url(#bg)"/>
  <ellipse cx="240" cy="395" rx="145" ry="20" fill="#000" opacity="0.25"/>
  <path d="M140 125h200l-20 245c-5 32-32 55-80 55s-75-23-80-55L140 125z" fill="url(#cup)" stroke="#8b5cf6" stroke-width="3"/>
  <ellipse cx="240" cy="125" rx="100" ry="24" fill="#faf5ff" stroke="#a78bfa" stroke-width="3"/>
  <circle cx="200" cy="205" r="14" fill="#f472b6"/>
  <circle cx="240" cy="190" r="13" fill="#fb7185"/>
  <circle cx="280" cy="208" r="12" fill="#fbbf24"/>
  <circle cx="220" cy="235" r="11" fill="#34d399"/>
  <circle cx="260" cy="228" r="10" fill="#60a5fa"/>
  <path d="M175 270c40 22 130 22 170 0" stroke="#7c3aed" stroke-width="9" stroke-linecap="round"/>
  <text x="240" y="82" text-anchor="middle" fill="#ddd6fe" font-family="system-ui,sans-serif" font-size="12" font-weight="700" letter-spacing="2">MEGA ANTOJO XL</text>
</svg>
